# xmcd
#
# Track frame offsets: 
#        150
#        17808
#        42773
#        67127
#        86171
#        101090
#        119431
#        141195
#        165221
#        184656
#        204288
#        224981
#        241170
#        257987
#        274045
#
# Disc length: 3926 seconds
#
# Revision: 0
# Processed by: cddbd v1.5.2PL0 Copyright (c) Steve Scherf et al.
# Submitted via: ExactAudioCopyFreeDBPlugin 1.0
#
DISCID=df0f540f
DTITLE=CDS制作 - TEST-CD-18B【发烧最强音】
DYEAR=2013
DGENRE=stereo
TTITLE0=请您恰恰
TTITLE1=掌声响起来
TTITLE2=独舞的枫叶
TTITLE3=怨苍天变了心
TTITLE4=烟雨蒙蒙
TTITLE5=此情可持
TTITLE6=我最亲爱的
TTITLE7=玉萨
TTITLE8=情义无价
TTITLE9=最后的倾诉
TTITLE10=挥不去的思念
TTITLE11=邻妹妹爱上假宝玉
TTITLE12=月光上行走
TTITLE13=如果你是我的传说
TTITLE14=花儿像人人像花
EXTD=
EXTT0=
EXTT1=
EXTT2=
EXTT3=
EXTT4=
EXTT5=
EXTT6=
EXTT7=
EXTT8=
EXTT9=
EXTT10=
EXTT11=
EXTT12=
EXTT13=
EXTT14=
PLAYORDER=
